<mxfile host="app.diagrams.net" agent="Mozilla/5.0 (X11; Linux x86_64) AppleWebKit/537.36 (KHTML, like Gecko) Chrome/140.0.0.0 Safari/537.36" version="28.2.3">
  <diagram name="Page-1" id="_BNeU3UzXw35crK5M0T8">
    <mxGraphModel dx="1700" dy="999" grid="1" gridSize="10" guides="1" tooltips="1" connect="1" arrows="1" fold="1" page="1" pageScale="1" pageWidth="850" pageHeight="1100" math="0" shadow="0">
      <root>
        <mxCell id="0" />
        <mxCell id="1" parent="0" />
        <mxCell id="GhcyAwUaSBHR2RqI9O9E-6" style="edgeStyle=orthogonalEdgeStyle;rounded=0;orthogonalLoop=1;jettySize=auto;html=1;exitX=0.5;exitY=1;exitDx=0;exitDy=0;entryX=0.5;entryY=0;entryDx=0;entryDy=0;" edge="1" parent="1" source="GhcyAwUaSBHR2RqI9O9E-1" target="GhcyAwUaSBHR2RqI9O9E-4">
          <mxGeometry relative="1" as="geometry" />
        </mxCell>
        <mxCell id="GhcyAwUaSBHR2RqI9O9E-1" value="&lt;font style=&quot;font-size: 18px;&quot;&gt;Usuario Final&lt;/font&gt;" style="rounded=0;whiteSpace=wrap;html=1;" vertex="1" parent="1">
          <mxGeometry x="200" y="60" width="120" height="60" as="geometry" />
        </mxCell>
        <mxCell id="GhcyAwUaSBHR2RqI9O9E-7" style="edgeStyle=orthogonalEdgeStyle;rounded=0;orthogonalLoop=1;jettySize=auto;html=1;exitX=0.5;exitY=1;exitDx=0;exitDy=0;entryX=0.5;entryY=0;entryDx=0;entryDy=0;" edge="1" parent="1" source="GhcyAwUaSBHR2RqI9O9E-4" target="GhcyAwUaSBHR2RqI9O9E-5">
          <mxGeometry relative="1" as="geometry" />
        </mxCell>
        <mxCell id="GhcyAwUaSBHR2RqI9O9E-11" style="edgeStyle=orthogonalEdgeStyle;rounded=0;orthogonalLoop=1;jettySize=auto;html=1;exitX=1;exitY=0.5;exitDx=0;exitDy=0;" edge="1" parent="1" source="GhcyAwUaSBHR2RqI9O9E-4" target="GhcyAwUaSBHR2RqI9O9E-9">
          <mxGeometry relative="1" as="geometry" />
        </mxCell>
        <mxCell id="GhcyAwUaSBHR2RqI9O9E-4" value="&lt;font style=&quot;font-size: 18px;&quot;&gt;Route 53&lt;/font&gt;" style="rounded=0;whiteSpace=wrap;html=1;" vertex="1" parent="1">
          <mxGeometry x="200" y="190" width="120" height="60" as="geometry" />
        </mxCell>
        <mxCell id="GhcyAwUaSBHR2RqI9O9E-13" style="edgeStyle=orthogonalEdgeStyle;rounded=0;orthogonalLoop=1;jettySize=auto;html=1;exitX=1;exitY=0.5;exitDx=0;exitDy=0;entryX=0;entryY=0.5;entryDx=0;entryDy=0;" edge="1" parent="1" source="GhcyAwUaSBHR2RqI9O9E-5" target="GhcyAwUaSBHR2RqI9O9E-12">
          <mxGeometry relative="1" as="geometry" />
        </mxCell>
        <mxCell id="GhcyAwUaSBHR2RqI9O9E-15" style="edgeStyle=orthogonalEdgeStyle;rounded=0;orthogonalLoop=1;jettySize=auto;html=1;exitX=0.5;exitY=1;exitDx=0;exitDy=0;" edge="1" parent="1" source="GhcyAwUaSBHR2RqI9O9E-5" target="GhcyAwUaSBHR2RqI9O9E-14">
          <mxGeometry relative="1" as="geometry" />
        </mxCell>
        <mxCell id="GhcyAwUaSBHR2RqI9O9E-17" style="edgeStyle=orthogonalEdgeStyle;rounded=0;orthogonalLoop=1;jettySize=auto;html=1;exitX=0.5;exitY=1;exitDx=0;exitDy=0;entryX=0.5;entryY=0;entryDx=0;entryDy=0;" edge="1" parent="1" source="GhcyAwUaSBHR2RqI9O9E-5" target="GhcyAwUaSBHR2RqI9O9E-16">
          <mxGeometry relative="1" as="geometry" />
        </mxCell>
        <mxCell id="GhcyAwUaSBHR2RqI9O9E-20" style="edgeStyle=orthogonalEdgeStyle;rounded=0;orthogonalLoop=1;jettySize=auto;html=1;entryX=0.5;entryY=0;entryDx=0;entryDy=0;" edge="1" parent="1" source="GhcyAwUaSBHR2RqI9O9E-5" target="GhcyAwUaSBHR2RqI9O9E-18">
          <mxGeometry relative="1" as="geometry" />
        </mxCell>
        <mxCell id="GhcyAwUaSBHR2RqI9O9E-5" value="&lt;font style=&quot;font-size: 18px;&quot;&gt;CloudFront +&amp;nbsp; WAF&lt;/font&gt;" style="rounded=0;whiteSpace=wrap;html=1;" vertex="1" parent="1">
          <mxGeometry x="200" y="330" width="120" height="60" as="geometry" />
        </mxCell>
        <mxCell id="GhcyAwUaSBHR2RqI9O9E-8" value="Actor" style="shape=umlActor;verticalLabelPosition=bottom;verticalAlign=top;html=1;outlineConnect=0;fontSize=1;" vertex="1" parent="1">
          <mxGeometry x="342" y="73" width="17" height="30" as="geometry" />
        </mxCell>
        <mxCell id="GhcyAwUaSBHR2RqI9O9E-9" value="&lt;font style=&quot;font-size: 18px;&quot;&gt;Configuracion de DNS&lt;/font&gt;" style="text;html=1;align=center;verticalAlign=middle;whiteSpace=wrap;rounded=0;" vertex="1" parent="1">
          <mxGeometry x="351" y="204" width="231" height="30" as="geometry" />
        </mxCell>
        <mxCell id="GhcyAwUaSBHR2RqI9O9E-12" value="&lt;font style=&quot;font-size: 18px;&quot;&gt;CloudFront para CDN y WAF como firewall&lt;/font&gt;" style="text;html=1;align=center;verticalAlign=middle;whiteSpace=wrap;rounded=0;" vertex="1" parent="1">
          <mxGeometry x="359" y="345" width="231" height="30" as="geometry" />
        </mxCell>
        <mxCell id="GhcyAwUaSBHR2RqI9O9E-14" value="&lt;font style=&quot;font-size: 18px;&quot;&gt;S3 (estaticos)&lt;/font&gt;" style="rounded=0;whiteSpace=wrap;html=1;" vertex="1" parent="1">
          <mxGeometry x="290.5" y="450" width="120" height="60" as="geometry" />
        </mxCell>
        <mxCell id="GhcyAwUaSBHR2RqI9O9E-16" value="&lt;font style=&quot;font-size: 18px;&quot;&gt;Frontend&lt;/font&gt;" style="rounded=0;whiteSpace=wrap;html=1;" vertex="1" parent="1">
          <mxGeometry x="450" y="450" width="120" height="60" as="geometry" />
        </mxCell>
        <mxCell id="GhcyAwUaSBHR2RqI9O9E-23" style="edgeStyle=orthogonalEdgeStyle;rounded=0;orthogonalLoop=1;jettySize=auto;html=1;exitX=1;exitY=0.5;exitDx=0;exitDy=0;entryX=0;entryY=0.5;entryDx=0;entryDy=0;" edge="1" parent="1" source="GhcyAwUaSBHR2RqI9O9E-18" target="GhcyAwUaSBHR2RqI9O9E-21">
          <mxGeometry relative="1" as="geometry" />
        </mxCell>
        <mxCell id="GhcyAwUaSBHR2RqI9O9E-25" style="edgeStyle=orthogonalEdgeStyle;rounded=0;orthogonalLoop=1;jettySize=auto;html=1;exitX=0.5;exitY=1;exitDx=0;exitDy=0;" edge="1" parent="1" source="GhcyAwUaSBHR2RqI9O9E-18" target="GhcyAwUaSBHR2RqI9O9E-24">
          <mxGeometry relative="1" as="geometry" />
        </mxCell>
        <mxCell id="GhcyAwUaSBHR2RqI9O9E-18" value="&lt;font style=&quot;font-size: 18px;&quot;&gt;ALB&lt;/font&gt;" style="rounded=0;whiteSpace=wrap;html=1;" vertex="1" parent="1">
          <mxGeometry x="200" y="570" width="120" height="60" as="geometry" />
        </mxCell>
        <mxCell id="GhcyAwUaSBHR2RqI9O9E-21" value="&lt;font style=&quot;font-size: 18px;&quot;&gt;Balanceo de Carga para backend&lt;/font&gt;" style="text;html=1;align=center;verticalAlign=middle;whiteSpace=wrap;rounded=0;" vertex="1" parent="1">
          <mxGeometry x="380" y="585" width="231" height="30" as="geometry" />
        </mxCell>
        <mxCell id="GhcyAwUaSBHR2RqI9O9E-22" style="edgeStyle=orthogonalEdgeStyle;rounded=0;orthogonalLoop=1;jettySize=auto;html=1;exitX=0.5;exitY=1;exitDx=0;exitDy=0;" edge="1" parent="1" source="GhcyAwUaSBHR2RqI9O9E-21" target="GhcyAwUaSBHR2RqI9O9E-21">
          <mxGeometry relative="1" as="geometry" />
        </mxCell>
        <mxCell id="GhcyAwUaSBHR2RqI9O9E-27" style="edgeStyle=orthogonalEdgeStyle;rounded=0;orthogonalLoop=1;jettySize=auto;html=1;exitX=1;exitY=0.5;exitDx=0;exitDy=0;" edge="1" parent="1" source="GhcyAwUaSBHR2RqI9O9E-24" target="GhcyAwUaSBHR2RqI9O9E-26">
          <mxGeometry relative="1" as="geometry" />
        </mxCell>
        <mxCell id="GhcyAwUaSBHR2RqI9O9E-30" style="edgeStyle=orthogonalEdgeStyle;rounded=0;orthogonalLoop=1;jettySize=auto;html=1;exitX=0.5;exitY=1;exitDx=0;exitDy=0;" edge="1" parent="1" source="GhcyAwUaSBHR2RqI9O9E-24">
          <mxGeometry relative="1" as="geometry">
            <mxPoint x="260" y="800" as="targetPoint" />
          </mxGeometry>
        </mxCell>
        <mxCell id="GhcyAwUaSBHR2RqI9O9E-24" value="&lt;font style=&quot;font-size: 18px;&quot;&gt;ECS, EC2 o EKS&amp;nbsp;&lt;/font&gt;" style="rounded=0;whiteSpace=wrap;html=1;" vertex="1" parent="1">
          <mxGeometry x="200" y="685" width="120" height="60" as="geometry" />
        </mxCell>
        <mxCell id="GhcyAwUaSBHR2RqI9O9E-26" value="&lt;span style=&quot;font-size: 18px;&quot;&gt;Estructura para Backend (servicios, APIs). La seleccion depende del tamano de la infraestructura&lt;/span&gt;" style="text;html=1;align=center;verticalAlign=middle;whiteSpace=wrap;rounded=0;" vertex="1" parent="1">
          <mxGeometry x="387.5" y="700" width="245" height="30" as="geometry" />
        </mxCell>
        <mxCell id="GhcyAwUaSBHR2RqI9O9E-32" style="edgeStyle=orthogonalEdgeStyle;rounded=0;orthogonalLoop=1;jettySize=auto;html=1;exitX=1;exitY=0.5;exitDx=0;exitDy=0;" edge="1" parent="1" source="GhcyAwUaSBHR2RqI9O9E-29" target="GhcyAwUaSBHR2RqI9O9E-31">
          <mxGeometry relative="1" as="geometry" />
        </mxCell>
        <mxCell id="GhcyAwUaSBHR2RqI9O9E-29" value="&lt;font style=&quot;font-size: 18px;&quot;&gt;Base de datos&lt;/font&gt;" style="rounded=0;whiteSpace=wrap;html=1;" vertex="1" parent="1">
          <mxGeometry x="200" y="810" width="120" height="60" as="geometry" />
        </mxCell>
        <mxCell id="GhcyAwUaSBHR2RqI9O9E-31" value="&lt;font style=&quot;font-size: 18px;&quot;&gt;Aurora, Mysql, Postgres&lt;/font&gt;" style="text;html=1;align=center;verticalAlign=middle;whiteSpace=wrap;rounded=0;" vertex="1" parent="1">
          <mxGeometry x="387.5" y="825" width="231" height="30" as="geometry" />
        </mxCell>
        <mxCell id="GhcyAwUaSBHR2RqI9O9E-36" style="edgeStyle=orthogonalEdgeStyle;rounded=0;orthogonalLoop=1;jettySize=auto;html=1;exitX=1;exitY=0.5;exitDx=0;exitDy=0;entryX=0;entryY=0.5;entryDx=0;entryDy=0;" edge="1" parent="1" source="GhcyAwUaSBHR2RqI9O9E-33" target="GhcyAwUaSBHR2RqI9O9E-35">
          <mxGeometry relative="1" as="geometry" />
        </mxCell>
        <mxCell id="GhcyAwUaSBHR2RqI9O9E-40" style="edgeStyle=orthogonalEdgeStyle;rounded=0;orthogonalLoop=1;jettySize=auto;html=1;exitX=0.5;exitY=1;exitDx=0;exitDy=0;entryX=0.5;entryY=0;entryDx=0;entryDy=0;" edge="1" parent="1" source="GhcyAwUaSBHR2RqI9O9E-33" target="GhcyAwUaSBHR2RqI9O9E-37">
          <mxGeometry relative="1" as="geometry" />
        </mxCell>
        <mxCell id="GhcyAwUaSBHR2RqI9O9E-33" value="&lt;div&gt;&lt;font style=&quot;font-size: 18px;&quot;&gt;S3 (objetos privados)&amp;nbsp;&lt;/font&gt;&lt;/div&gt;" style="rounded=0;whiteSpace=wrap;html=1;" vertex="1" parent="1">
          <mxGeometry x="200" y="910" width="120" height="60" as="geometry" />
        </mxCell>
        <mxCell id="GhcyAwUaSBHR2RqI9O9E-35" value="&lt;font style=&quot;font-size: 18px;&quot;&gt;Informacion que solo maneja el backend (archivos, imagenes de usuario, etc)&amp;nbsp;&lt;/font&gt;" style="text;html=1;align=center;verticalAlign=middle;whiteSpace=wrap;rounded=0;" vertex="1" parent="1">
          <mxGeometry x="387.5" y="925" width="231" height="30" as="geometry" />
        </mxCell>
        <mxCell id="GhcyAwUaSBHR2RqI9O9E-42" style="edgeStyle=orthogonalEdgeStyle;rounded=0;orthogonalLoop=1;jettySize=auto;html=1;exitX=1;exitY=0.5;exitDx=0;exitDy=0;" edge="1" parent="1" source="GhcyAwUaSBHR2RqI9O9E-37">
          <mxGeometry relative="1" as="geometry">
            <mxPoint x="380" y="1034.75" as="targetPoint" />
          </mxGeometry>
        </mxCell>
        <mxCell id="GhcyAwUaSBHR2RqI9O9E-37" value="&lt;font style=&quot;font-size: 18px;&quot;&gt;Lambda (opcional)&lt;/font&gt;" style="rounded=0;whiteSpace=wrap;html=1;" vertex="1" parent="1">
          <mxGeometry x="205" y="1005" width="110" height="60" as="geometry" />
        </mxCell>
        <mxCell id="GhcyAwUaSBHR2RqI9O9E-39" value="&lt;font style=&quot;font-size: 18px;&quot;&gt;Automatizacion, procesar imagenes, etc.&lt;/font&gt;" style="text;html=1;align=center;verticalAlign=middle;whiteSpace=wrap;rounded=0;" vertex="1" parent="1">
          <mxGeometry x="410.5" y="1020" width="231" height="30" as="geometry" />
        </mxCell>
      </root>
    </mxGraphModel>
  </diagram>
</mxfile>
